<?xml version="1.0" encoding="UTF-8" standalone="no"?>
<!-- Created with Inkscape (http://www.inkscape.org/) -->

<svg
   xmlns:dc="http://purl.org/dc/elements/1.1/"
   xmlns:cc="http://creativecommons.org/ns#"
   xmlns:rdf="http://www.w3.org/1999/02/22-rdf-syntax-ns#"
   xmlns:svg="http://www.w3.org/2000/svg"
   xmlns="http://www.w3.org/2000/svg"
   xmlns:sodipodi="http://sodipodi.sourceforge.net/DTD/sodipodi-0.dtd"
   xmlns:inkscape="http://www.inkscape.org/namespaces/inkscape"
   width="1000"
   height="600"
   viewBox="0 0 1000 600"
   version="1.1"
   id="svg8"
   inkscape:version="0.92.4 (5da689c313, 2019-01-14)"
   sodipodi:docname="animations.inc.svg">
  <defs
     id="defs2" />
  <sodipodi:namedview
     id="base"
     pagecolor="#ffffff"
     bordercolor="#666666"
     borderopacity="1.0"
     inkscape:pageopacity="0.0"
     inkscape:pageshadow="2"
     inkscape:zoom="1"
     inkscape:cx="57"
     inkscape:cy="293"
     inkscape:document-units="px"
     inkscape:current-layer="svg8"
     showgrid="false"
     units="px"
     inkscape:window-width="3747"
     inkscape:window-height="2125"
     inkscape:window-x="81"
     inkscape:window-y="0"
     inkscape:window-maximized="1" />
  <metadata
     id="metadata5">
    <rdf:RDF>
      <cc:Work
         rdf:about="">
        <dc:format>image/svg+xml</dc:format>
        <dc:type
           rdf:resource="http://purl.org/dc/dcmitype/StillImage" />
        <dc:title />
      </cc:Work>
    </rdf:RDF>
  </metadata>
  <path
     sodipodi:nodetypes="scsssssssssssszssscsssssss"
     inkscape:connector-curvature="0"
     id="path834"
     d="m 359.63201,347.9587 c -39.57479,2e-5 -82.56635,-22.79533 -98.99494,-57.5578 -15.48237,-1.30053 -29.47621,-12.82848 -34.4911,-27.85755 -8.60905,-25.80081 -8.43961,-55.14415 -29.0373,-75.50531 -9.26254,-9.15612 15.58022,-10.22124 21.49857,-8.63536 11.27211,3.02033 16.67021,15.8691 25.25759,27.22499 11.59806,15.3372 16.31185,21.4153 25.52567,5.45658 7.51766,-13.02081 12.79803,-15.72695 20.83673,-22.34927 10.88928,-8.97064 0.78613,-6.55563 5.88792,-15.39219 3.99847,-6.92548 24.69877,-12.34411 39.72315,-12.34411 13.3491,0 10.34379,-3.92063 10.34379,-11.74387 0,-17.71981 31.11151,-17.90019 31.11131,-2e-5 0,8.80516 -4.9604,11.93108 9.14679,11.74387 14.1225,-0.18734 35.39635,4.54788 40.48362,13.35928 4.29677,7.44237 -4.12156,10.16329 8.16896,17.25933 12.29072,7.09603 12.52936,15.14795 19.69939,2.80547 9.4449,-16.25834 34.30476,-21.20621 49.83148,-8.92009 24.69937,19.54432 26.19347,58.53131 8.18426,83.32743 -13.82201,19.031 -36.83516,29.00594 -57.69416,35.88475 -26.45121,29.47605 -53.3105,43.24389 -95.48173,43.24387 z m 117.32692,-66.92369 c 27.9825,-8.57781 42.7559,-44.31411 30.56024,-71.45199 -5.88394,-13.09266 -22.36822,-23.71091 -34.74544,-14.14006 -6.62852,5.12542 -17.06498,16.27626 -12.79704,24.7631 9.1092,18.11429 11.29577,38.6625 7.47211,58.33582 -0.85315,4.38949 7.1935,3.20329 9.51013,2.49313 z"
     style="fill:#ccc" >
     <animateTransform attributeName="transform"
                          attributeType="XML"
                          type="translate"
                          values="0 0; 280 0; 280 0; 0 0; 0 0"
                          dur="10s"
                          calcMode="linear"
                          repeatCount="indefinite"/>
                          <animate
       attributeType="CSS"
       attributeName="fill"
       values="#ccc;#eee;#ccc;#ccc;#ccc;#eee;#ccc;#ccc;#ccc"
       calcMode="linear"
       dur="10s"
       repeatCount="indefinite" />
     </path>
  <rect
     style="fill:#e6e6e6"
     id="horizontalRuler"
     width="1000"
     height="40"
     x="0"
     y="-60" />
  <rect
     y="0"
     x="-60"
     height="600"
     width="40"
     id="verticalRuler"
     style="fill:#e6e6e6" />
  <rect
     y="-320"
     x="480"
     height="100"
     width="100"
     id="blackColor"
     style="fill:#000000" />
  <rect
     y="-200"
     x="480"
     height="100"
     width="100"
     id="grayColor"
     style="fill:#999999" />
  <rect
     y="-320"
     x="240"
     height="100"
     width="100"
     id="blueColor"
     style="fill:#4c99e6" />
  <rect
     style="fill:#99e64c"
     id="greenColor"
     width="100"
     height="100"
     x="120"
     y="-200" />
  <rect
     y="-200"
     x="240"
     height="100"
     width="100"
     id="violetColor"
     style="fill:#994ce6" />
  <rect
     style="fill:#e6994c"
     id="orangeColor"
     width="100"
     height="100"
     x="120"
     y="-320" />
  <rect
     style="fill:#1760a9"
     id="darkBlueColor"
     width="100"
     height="100"
     x="360"
     y="-320" />
  <rect
     style="fill:#6018a8"
     id="darkVioletColor"
     width="100"
     height="100"
     x="360"
     y="-200" />
  <rect
     y="-200"
     x="0"
     height="100"
     width="100"
     id="darkGreenColor"
     style="fill:#60a818" />
  <rect
     y="-320"
     x="0"
     height="100"
     width="100"
     id="darkOrangeColor"
     style="fill:#a86018" />
  <path
     style="fill:#5aa02c"
     d="m 499.63201,347.9587 c -39.57479,2e-5 -82.56635,-22.79533 -98.99494,-57.5578 -15.48237,-1.30053 -29.47621,-12.82848 -34.4911,-27.85755 -8.60905,-25.80081 -8.43961,-55.14415 -29.0373,-75.50531 -9.26254,-9.15612 15.58022,-10.22124 21.49857,-8.63536 11.27211,3.02033 16.67021,15.8691 25.25759,27.22499 11.59806,15.3372 16.31185,21.4153 25.52567,5.45658 7.51766,-13.02081 12.79803,-15.72695 20.83673,-22.34927 10.88928,-8.97064 0.78613,-6.55563 5.88792,-15.39219 3.99847,-6.92548 24.69877,-12.34411 39.72315,-12.34411 13.3491,0 10.34379,-3.92063 10.34379,-11.74387 0,-17.71981 31.11151,-17.90019 31.11131,-2e-5 0,8.80516 -4.9604,11.93108 9.14679,11.74387 14.1225,-0.18734 35.39635,4.54788 40.48362,13.35928 4.29677,7.44237 -4.12156,10.16329 8.16896,17.25933 12.29072,7.09603 12.52936,15.14795 19.69939,2.80547 9.4449,-16.25834 34.30476,-21.20621 49.83148,-8.92009 24.69937,19.54432 26.19347,58.53131 8.18426,83.32743 -13.82201,19.031 -36.83516,29.00594 -57.69416,35.88475 -26.45121,29.47605 -53.3105,43.24389 -95.48173,43.24387 z m 117.32692,-66.92369 c 27.9825,-8.57781 42.7559,-44.31411 30.56024,-71.45199 -5.88394,-13.09266 -22.36822,-23.71091 -34.74544,-14.14006 -6.62852,5.12542 -17.06498,16.27626 -12.79704,24.7631 9.1092,18.11429 11.29577,38.6625 7.47211,58.33582 -0.85315,4.38949 7.1935,3.20329 9.51013,2.49313 z"
     id="path858"
     inkscape:connector-curvature="0"
     sodipodi:nodetypes="scsssssssssssszssscsssssss" > <animate
       attributeType="CSS"
       attributeName="fill"
       values="#5aa02c;#2c5aa0;#2c5aa0;#5aa02c;#5aa02c"
       calcMode="linear"
       dur="10s"
       repeatCount="indefinite" /></path>
  <text
     id="text1028"
     y="490"
     x="500"
     style="font-weight:bold;font-size:30px;line-height:40px;font-family:Lato;-inkscape-font-specification:'Lato Bold';text-align:center;text-anchor:middle;fill:#000000"
     xml:space="preserve"><tspan
       y="490"
       x="500"
       sodipodi:role="line"
       id="tspan832">Animated vector graphics.</tspan></text>

</svg>
