<?xml version="1.0" encoding="UTF-8" standalone="no"?>
<!-- Created with Inkscape (http://www.inkscape.org/) -->

<svg
   xmlns:dc="http://purl.org/dc/elements/1.1/"
   xmlns:cc="http://creativecommons.org/ns#"
   xmlns:rdf="http://www.w3.org/1999/02/22-rdf-syntax-ns#"
   xmlns:svg="http://www.w3.org/2000/svg"
   xmlns="http://www.w3.org/2000/svg"
   xmlns:sodipodi="http://sodipodi.sourceforge.net/DTD/sodipodi-0.dtd"
   xmlns:inkscape="http://www.inkscape.org/namespaces/inkscape"
   width="140"
   height="60"
   version="1.1"
   id="svg8"
   inkscape:version="0.92.4 (5da689c313, 2019-01-14)"
   sodipodi:docname="company-logo.svg">
  <defs
     id="defs2" />
  <sodipodi:namedview
     id="base"
     pagecolor="#ffffff"
     bordercolor="#666666"
     borderopacity="1.0"
     inkscape:pageopacity="0.0"
     inkscape:pageshadow="2"
     inkscape:zoom="2.7683231"
     inkscape:cx="-60.024674"
     inkscape:cy="27.471394"
     inkscape:current-layer="layer1"
     showgrid="false"
     inkscape:window-width="3747"
     inkscape:window-height="2125"
     inkscape:window-x="81"
     inkscape:window-y="0"
     inkscape:window-maximized="1" />
  <metadata
     id="metadata5">
    <rdf:RDF>
      <cc:Work
         rdf:about="">
        <dc:format>image/svg+xml</dc:format>
        <dc:type
           rdf:resource="http://purl.org/dc/dcmitype/StillImage" />
        <dc:title />
      </cc:Work>
    </rdf:RDF>
  </metadata>
  <g
     inkscape:label="Layer 1"
     inkscape:groupmode="layer"
     id="layer1">
    <path
       style="color:#000000;clip-rule:nonzero;display:inline;overflow:visible;visibility:visible;opacity:1;isolation:auto;mix-blend-mode:normal;color-interpolation:sRGB;color-interpolation-filters:linearRGB;solid-color:#000000;solid-opacity:1;vector-effect:none;fill:none;fill-opacity:1;fill-rule:nonzero;stroke:#f70808;stroke-width:6;stroke-linecap:round;stroke-linejoin:round;stroke-miterlimit:4;stroke-dasharray:none;stroke-dashoffset:0;stroke-opacity:1;marker:none;color-rendering:auto;image-rendering:auto;shape-rendering:auto;text-rendering:auto;enable-background:accumulate"
       d="M 41.66031,28.454981 38.720458,47.807889 19.406284,50.992302 10.40932,33.607468"
       id="path823"
       inkscape:connector-curvature="0" />
    <path
       style="color:#000000;clip-rule:nonzero;display:inline;overflow:visible;visibility:visible;opacity:1;isolation:auto;mix-blend-mode:normal;color-interpolation:sRGB;color-interpolation-filters:linearRGB;solid-color:#000000;solid-opacity:1;vector-effect:none;fill:none;fill-opacity:1;fill-rule:nonzero;stroke:#a50505;stroke-width:6;stroke-linecap:round;stroke-linejoin:round;stroke-miterlimit:4;stroke-dasharray:none;stroke-dashoffset:0;stroke-opacity:1;marker:none;color-rendering:auto;image-rendering:auto;shape-rendering:auto;text-rendering:auto;enable-background:accumulate"
       d="M 10.40932,33.607468 24.163064,19.678638 41.66031,28.454981"
       id="path828"
       inkscape:connector-curvature="0" />
  </g>
  <path
     inkscape:connector-curvature="0"
     id="path836"
     style="font-style:normal;font-variant:normal;font-weight:normal;font-stretch:normal;font-size:16px;line-height:18px;font-family:'Source Sans Pro';-inkscape-font-specification:'Source Sans Pro';letter-spacing:0px;word-spacing:0px;fill:#4d4d4d;fill-opacity:1;stroke:none;stroke-width:1.23456705px;stroke-linecap:butt;stroke-linejoin:miter;stroke-opacity:1"
     d="m 53.257854,13.483975 q 0,-1.560493 0.43456,-2.804935 0.434576,-1.244444 1.204944,-2.11358 0.790127,-0.869136 1.837038,-1.323457 1.066671,-0.474073 2.311103,-0.474073 1.165438,0 2.054318,0.493826 0.908656,0.474074 1.481487,1.106173 L 61.652905,9.414841 Q 61.139337,8.861756 60.507225,8.545707 59.87513,8.209905 59.065259,8.209905 q -0.9284,0 -1.698767,0.375308 -0.750608,0.355555 -1.283952,1.046913 -0.533327,0.671604 -0.829631,1.639505 -0.296287,0.9679 -0.296287,2.172838 0,1.224691 0.276543,2.212344 0.296288,0.967901 0.809872,1.659258 0.533327,0.691359 1.264191,1.066666 0.750623,0.375308 1.679023,0.375308 0.928383,0 1.619742,-0.375308 0.71112,-0.375307 1.343216,-1.066666 l 0.928398,1.007407 q -0.750622,0.888889 -1.718526,1.382715 -0.967904,0.493827 -2.212334,0.493827 -1.224704,0 -2.271615,-0.454322 -1.027151,-0.454319 -1.797518,-1.303701 -0.750624,-0.869135 -1.1852,-2.113579 -0.43456,-1.264198 -0.43456,-2.844443 z" />
  <path
     inkscape:connector-curvature="0"
     id="path838"
     style="font-style:normal;font-variant:normal;font-weight:normal;font-stretch:normal;font-size:16px;line-height:18px;font-family:'Source Sans Pro';-inkscape-font-specification:'Source Sans Pro';letter-spacing:0px;word-spacing:0px;fill:#4d4d4d;fill-opacity:1;stroke:none;stroke-width:1.23456705px;stroke-linecap:butt;stroke-linejoin:miter;stroke-opacity:1"
     d="m 69.495187,20.20002 q -1.224686,0 -2.251854,-0.474074 -1.007408,-0.474074 -1.758014,-1.343209 -0.730864,-0.888889 -1.14568,-2.133332 -0.395056,-1.264196 -0.395056,-2.824689 0,-1.560494 0.395056,-2.785184 0.414816,-1.244443 1.14568,-2.093825 0.750606,-0.869136 1.758014,-1.323456 1.027168,-0.454321 2.251854,-0.454321 1.204944,0 2.212351,0.474073 1.027151,0.454321 1.758015,1.323457 0.750623,0.849381 1.145679,2.093826 0.414816,1.224691 0.414816,2.76543 0,1.560493 -0.414816,2.824689 -0.395056,1.244443 -1.145679,2.133332 -0.730864,0.869135 -1.758015,1.343209 -1.007407,0.474074 -2.212351,0.474074 z m 0,-1.441975 q 0.869136,0 1.560496,-0.375308 0.711103,-0.375307 1.204942,-1.066666 0.513568,-0.71111 0.790112,-1.679011 0.276544,-0.987654 0.276544,-2.212344 0,-1.204937 -0.276544,-2.172839 -0.276544,-0.9679 -0.790112,-1.639504 -0.493839,-0.671605 -1.204942,-1.02716 -0.69136,-0.375308 -1.560496,-0.375308 -0.869134,0 -1.580238,0.375308 -0.71112,0.355555 -1.224704,1.02716 -0.493824,0.671604 -0.770368,1.639504 -0.276542,0.967902 -0.276542,2.172839 0,1.22469 0.276542,2.212344 0.276544,0.967901 0.770368,1.679011 0.513584,0.691359 1.224704,1.066666 0.711104,0.375308 1.580238,0.375308 z" />
  <path
     inkscape:connector-curvature="0"
     id="path840"
     style="font-style:normal;font-variant:normal;font-weight:normal;font-stretch:normal;font-size:16px;line-height:18px;font-family:'Source Sans Pro';-inkscape-font-specification:'Source Sans Pro';letter-spacing:0px;word-spacing:0px;fill:#4d4d4d;fill-opacity:1;stroke:none;stroke-width:1.23456705px;stroke-linecap:butt;stroke-linejoin:miter;stroke-opacity:1"
     d="m 77.696734,7.004967 h 1.95555 l 2.508638,6.953081 0.9284,2.646913 h 0.07904 l 0.90864,-2.646913 2.488894,-6.953081 h 1.93579 v 12.958017 h -1.560494 v -7.13086 q 0,-0.869135 0.07904,-1.916049 0.07904,-1.046913 0.13824,-1.916047 h -0.07904 L 86.05228,11.883977 83.563386,18.65928 H 82.615242 L 80.126348,11.883977 79.099196,9.000028 h -0.07904 q 0.0592,0.869134 0.11856,1.916047 0.07904,1.046914 0.07904,1.916049 v 7.13086 h -1.520974 z" />
  <path
     inkscape:connector-curvature="0"
     id="path842"
     style="font-style:normal;font-variant:normal;font-weight:normal;font-stretch:normal;font-size:16px;line-height:18px;font-family:'Source Sans Pro';-inkscape-font-specification:'Source Sans Pro';letter-spacing:0px;word-spacing:0px;fill:#4d4d4d;fill-opacity:1;stroke:none;stroke-width:1.23456705px;stroke-linecap:butt;stroke-linejoin:miter;stroke-opacity:1"
     d="m 91.971412,7.004967 h 3.990108 q 1.06667,0 1.95557,0.197531 0.88888,0.19753 1.50123,0.651852 0.63209,0.434567 0.9679,1.165431 0.35555,0.730864 0.35555,1.797529 0,1.02716 -0.35555,1.777777 -0.33581,0.750616 -0.9679,1.244442 -0.6321,0.493828 -1.52099,0.750618 -0.86914,0.237037 -1.93581,0.237037 h -2.33086 v 5.1358 h -1.659248 z m 3.772828,6.479008 q 1.71853,0 2.5284,-0.632099 0.82963,-0.65185 0.82963,-2.034566 0,-1.402469 -0.84939,-1.935801 -0.82962,-0.553086 -2.50864,-0.553086 h -2.11358 v 5.155552 z" />
  <path
     inkscape:connector-curvature="0"
     id="path844"
     style="font-style:normal;font-variant:normal;font-weight:normal;font-stretch:normal;font-size:16px;line-height:18px;font-family:'Source Sans Pro';-inkscape-font-specification:'Source Sans Pro';letter-spacing:0px;word-spacing:0px;fill:#4d4d4d;fill-opacity:1;stroke:none;stroke-width:1.23456705px;stroke-linecap:butt;stroke-linejoin:miter;stroke-opacity:1"
     d="m 107.82201,14.688913 -0.61234,-1.975307 q -0.33581,-1.08642 -0.65185,-2.153085 -0.31605,-1.08642 -0.63209,-2.212344 h -0.0791 q -0.31607,1.125924 -0.63212,2.212344 -0.31604,1.066665 -0.65184,2.153085 l -0.6321,1.975307 z m 0.41481,1.323456 h -4.72097 l -1.24444,3.950615 h -1.67903 l 4.3852,-12.958017 h 1.85679 l 4.38517,12.958017 h -1.73827 z" />
  <path
     inkscape:connector-curvature="0"
     id="path846"
     style="font-style:normal;font-variant:normal;font-weight:normal;font-stretch:normal;font-size:16px;line-height:18px;font-family:'Source Sans Pro';-inkscape-font-specification:'Source Sans Pro';letter-spacing:0px;word-spacing:0px;fill:#4d4d4d;fill-opacity:1;stroke:none;stroke-width:1.23456705px;stroke-linecap:butt;stroke-linejoin:miter;stroke-opacity:1"
     d="m 112.92047,7.004967 h 1.69876 l 4.70124,8.138266 1.40245,2.686419 h 0.0791 q -0.0592,-0.987654 -0.13824,-2.034567 -0.0791,-1.066667 -0.0791,-2.093825 V 7.004967 h 1.5605 v 12.958017 h -1.69876 L 115.76495,11.804963 114.36247,9.1383 h -0.0791 q 0.0592,0.987653 0.11853,2.014813 0.0791,1.007407 0.0791,2.034566 v 6.775305 h -1.5605 z" />
  <path
     inkscape:connector-curvature="0"
     id="path848"
     style="font-style:normal;font-variant:normal;font-weight:normal;font-stretch:normal;font-size:16px;line-height:18px;font-family:'Source Sans Pro';-inkscape-font-specification:'Source Sans Pro';letter-spacing:0px;word-spacing:0px;fill:#4d4d4d;fill-opacity:1;stroke:none;stroke-width:1.23456705px;stroke-linecap:butt;stroke-linejoin:miter;stroke-opacity:1"
     d="m 127.72694,14.945702 -3.9111,-7.940735 h 1.77778 l 1.65924,3.654319 q 0.31605,0.711109 0.61236,1.402468 0.31604,0.691357 0.65185,1.422221 h 0.0791 q 0.3358,-0.730864 0.65185,-1.422221 0.33578,-0.691359 0.63209,-1.402468 l 1.67901,-3.654319 h 1.69876 l -3.89135,7.940735 v 5.017282 h -1.6395 z" />
  <path
     d="m 53.257875,26.508517 h 5.013148 v 17.884794 h 8.70529 v 4.200217 H 53.257875 Z"
     id="path822"
     inkscape:connector-curvature="0"
     style="font-style:normal;font-variant:normal;font-weight:bold;font-stretch:normal;font-size:16px;line-height:18px;font-family:'Source Sans Pro';-inkscape-font-specification:'Source Sans Pro Bold';letter-spacing:0px;word-spacing:0px;fill:#4d4d4d;fill-opacity:1;stroke:none;stroke-width:2.11704493px;stroke-linecap:butt;stroke-linejoin:miter;stroke-opacity:1" />
  <path
     d="m 78.508914,49 q -2.235598,0 -4.09859,-0.779072 -1.829118,-0.812945 -3.150173,-2.303345 -1.321023,-1.4904 -2.066223,-3.624381 -0.711327,-2.133981 -0.711327,-4.843799 0,-2.709817 0.711327,-4.809924 0.7452,-2.133983 2.066223,-3.556636 1.321055,-1.456528 3.150173,-2.201726 1.862992,-0.779074 4.09859,-0.779074 2.235614,0 4.064734,0.779074 1.863006,0.745198 3.184029,2.201726 1.321039,1.456526 2.032366,3.590508 0.7452,2.100109 0.7452,4.776052 0,2.709818 -0.7452,4.843799 -0.711327,2.133981 -2.032366,3.624381 -1.321023,1.4904 -3.184029,2.303345 Q 80.744528,49 78.508914,49 Z m 0,-4.301835 q 2.26947,0 3.590526,-1.930745 1.321022,-1.964618 1.321022,-5.318017 0,-3.319526 -1.321022,-5.182524 -1.321056,-1.863001 -3.590526,-1.863001 -2.235598,0 -3.590494,1.863001 -1.321039,1.862998 -1.321039,5.182524 0,1.659764 0.338719,3.014671 0.372592,1.321037 0.98232,2.269473 0.643584,0.948437 1.558142,1.456529 0.91456,0.508089 2.032352,0.508089 z"
     id="path824"
     inkscape:connector-curvature="0"
     style="font-style:normal;font-variant:normal;font-weight:bold;font-stretch:normal;font-size:16px;line-height:18px;font-family:'Source Sans Pro';-inkscape-font-specification:'Source Sans Pro Bold';letter-spacing:0px;word-spacing:0px;fill:#4d4d4d;fill-opacity:1;stroke:none;stroke-width:2.11704493px;stroke-linecap:butt;stroke-linejoin:miter;stroke-opacity:1" />
  <path
     d="m 91.637769,37.686514 q 0,-2.743692 0.846831,-4.877672 0.88069,-2.167854 2.33721,-3.658254 1.4904,-1.490401 3.45501,-2.269471 1.9985,-0.779074 4.23411,-0.779074 2.33721,0 4.03085,0.880691 1.72749,0.88069 2.84531,1.99849 l -2.7437,3.082418 q -0.84681,-0.779073 -1.7614,-1.219418 -0.88067,-0.440346 -2.30331,-0.440346 -1.28718,0 -2.37111,0.508091 -1.05005,0.474217 -1.82912,1.388782 -0.7452,0.914563 -1.18555,2.235598 -0.44035,1.321036 -0.44035,2.980799 0,3.421146 1.52427,5.318018 1.55816,1.862999 4.70832,1.862999 0.67746,0 1.28716,-0.169364 0.64359,-0.169362 1.05005,-0.50809 v -3.793745 h -3.65825 v -4.064725 h 8.09559 v 10.161814 q -0.60972,0.508091 -1.42267,1.016181 -0.77907,0.474219 -1.72751,0.846819 -0.94844,0.3726 -2.03236,0.575837 Q 103.49322,49 102.34156,49 q -2.2356,0 -4.20021,-0.711328 -1.93075,-0.745198 -3.38728,-2.167853 -1.45653,-1.422654 -2.30336,-3.522763 -0.812941,-2.133982 -0.812941,-4.911542 z"
     id="path826"
     inkscape:connector-curvature="0"
     style="font-style:normal;font-variant:normal;font-weight:bold;font-stretch:normal;font-size:16px;line-height:18px;font-family:'Source Sans Pro';-inkscape-font-specification:'Source Sans Pro Bold';letter-spacing:0px;word-spacing:0px;fill:#4d4d4d;fill-opacity:1;stroke:none;stroke-width:2.11704493px;stroke-linecap:butt;stroke-linejoin:miter;stroke-opacity:1" />
  <path
     d="m 123.2315,49 q -2.2356,0 -4.0986,-0.779072 -1.82914,-0.812945 -3.15017,-2.303345 -1.32103,-1.4904 -2.06623,-3.624381 -0.71132,-2.133981 -0.71132,-4.843799 0,-2.709817 0.71132,-4.809924 0.7452,-2.133983 2.06623,-3.556636 1.32103,-1.456528 3.15017,-2.201726 1.863,-0.779074 4.0986,-0.779074 2.23561,0 4.06473,0.779074 1.863,0.745198 3.18402,2.201726 1.32104,1.456526 2.03236,3.590508 0.7452,2.100109 0.7452,4.776052 0,2.709818 -0.7452,4.843799 -0.71132,2.133981 -2.03236,3.624381 -1.32102,1.4904 -3.18402,2.303345 Q 125.46711,49 123.2315,49 Z m 0,-4.301835 q 2.26946,0 3.5905,-1.930745 1.32104,-1.964618 1.32104,-5.318017 0,-3.319526 -1.32104,-5.182524 -1.32104,-1.863001 -3.5905,-1.863001 -2.2356,0 -3.59052,1.863001 -1.32104,1.862998 -1.32104,5.182524 0,1.659764 0.33874,3.014671 0.37259,1.321037 0.9823,2.269473 0.64358,0.948437 1.55816,1.456529 0.91456,0.508089 2.03236,0.508089 z"
     id="path830"
     inkscape:connector-curvature="0"
     style="font-style:normal;font-variant:normal;font-weight:bold;font-stretch:normal;font-size:16px;line-height:18px;font-family:'Source Sans Pro';-inkscape-font-specification:'Source Sans Pro Bold';letter-spacing:0px;word-spacing:0px;fill:#4d4d4d;fill-opacity:1;stroke:none;stroke-width:2.11704493px;stroke-linecap:butt;stroke-linejoin:miter;stroke-opacity:1" />
</svg>
