<?xml version="1.0" encoding="UTF-8" standalone="no"?>
<!-- Created with Inkscape (http://www.inkscape.org/) -->

<svg
   xmlns:dc="http://purl.org/dc/elements/1.1/"
   xmlns:cc="http://creativecommons.org/ns#"
   xmlns:rdf="http://www.w3.org/1999/02/22-rdf-syntax-ns#"
   xmlns:svg="http://www.w3.org/2000/svg"
   xmlns="http://www.w3.org/2000/svg"
   xmlns:sodipodi="http://sodipodi.sourceforge.net/DTD/sodipodi-0.dtd"
   xmlns:inkscape="http://www.inkscape.org/namespaces/inkscape"
   width="120"
   height="60"
   version="1.1"
   id="svg8"
   inkscape:version="0.92.4 (5da689c313, 2019-01-14)"
   sodipodi:docname="company-logo.svg">
  <defs
     id="defs2" />
  <sodipodi:namedview
     id="base"
     pagecolor="#ffffff"
     bordercolor="#666666"
     borderopacity="1.0"
     inkscape:pageopacity="0.0"
     inkscape:pageshadow="2"
     inkscape:zoom="2.7683231"
     inkscape:cx="-140.03701"
     inkscape:cy="26.207091"
     inkscape:current-layer="layer1"
     showgrid="false"
     inkscape:window-width="3747"
     inkscape:window-height="2125"
     inkscape:window-x="81"
     inkscape:window-y="0"
     inkscape:window-maximized="1" />
  <metadata
     id="metadata5">
    <rdf:RDF>
      <cc:Work
         rdf:about="">
        <dc:format>image/svg+xml</dc:format>
        <dc:type
           rdf:resource="http://purl.org/dc/dcmitype/StillImage" />
        <dc:title />
      </cc:Work>
    </rdf:RDF>
  </metadata>
  <g
     inkscape:label="Layer 1"
     inkscape:groupmode="layer"
     id="layer1">
    <path
       style="color:#000000;clip-rule:nonzero;display:inline;overflow:visible;visibility:visible;opacity:1;isolation:auto;mix-blend-mode:normal;color-interpolation:sRGB;color-interpolation-filters:linearRGB;solid-color:#000000;solid-opacity:1;vector-effect:none;fill:none;fill-opacity:1;fill-rule:nonzero;stroke:#f70808;stroke-width:6;stroke-linecap:round;stroke-linejoin:round;stroke-miterlimit:4;stroke-dasharray:none;stroke-dashoffset:0;stroke-opacity:1;marker:none;color-rendering:auto;image-rendering:auto;shape-rendering:auto;text-rendering:auto;enable-background:accumulate"
       d="M 40.743999,21.732522 37.804147,41.08543 18.489973,44.269843 9.4930085,26.885009"
       id="path823"
       inkscape:connector-curvature="0" />
    <path
       style="color:#000000;clip-rule:nonzero;display:inline;overflow:visible;visibility:visible;opacity:1;isolation:auto;mix-blend-mode:normal;color-interpolation:sRGB;color-interpolation-filters:linearRGB;solid-color:#000000;solid-opacity:1;vector-effect:none;fill:none;fill-opacity:1;fill-rule:nonzero;stroke:#a50505;stroke-width:6;stroke-linecap:round;stroke-linejoin:round;stroke-miterlimit:4;stroke-dasharray:none;stroke-dashoffset:0;stroke-opacity:1;marker:none;color-rendering:auto;image-rendering:auto;shape-rendering:auto;text-rendering:auto;enable-background:accumulate"
       d="M 9.4930085,26.885009 23.246753,12.956179 40.743999,21.732522"
       id="path828"
       inkscape:connector-curvature="0" />
  </g>
  <path
     inkscape:connector-curvature="0"
     id="path836"
     style="font-style:normal;font-variant:normal;font-weight:normal;font-stretch:normal;font-size:16px;line-height:18px;font-family:'Source Sans Pro';-inkscape-font-specification:'Source Sans Pro';letter-spacing:0px;word-spacing:0px;fill:#4d4d4d;fill-opacity:1;stroke:none;stroke-width:0.92592496px;stroke-linecap:butt;stroke-linejoin:miter;stroke-opacity:1"
     d="m 53.257854,18.36299 q 0,-1.170369 0.32592,-2.103701 0.325932,-0.933332 0.903708,-1.585184 0.592595,-0.651852 1.377778,-0.992593 0.800003,-0.355554 1.733326,-0.355554 0.874079,0 1.540738,0.370369 0.681492,0.355556 1.111115,0.82963 L 59.55414,15.31114 q -0.385176,-0.414813 -0.85926,-0.65185 -0.474071,-0.251851 -1.081474,-0.251851 -0.696299,0 -1.274075,0.281481 -0.562955,0.266666 -0.962963,0.785184 -0.399995,0.503703 -0.622223,1.229628 -0.222215,0.725925 -0.222215,1.629628 0,0.918518 0.207407,1.659258 0.222216,0.725925 0.607404,1.244443 0.399995,0.518519 0.948143,0.799999 0.562967,0.281481 1.259266,0.281481 0.696287,0 1.214806,-0.281481 0.53334,-0.28148 1.007412,-0.799999 l 0.696298,0.755555 q -0.562966,0.666667 -1.288894,1.037036 -0.725927,0.37037 -1.65925,0.37037 -0.918527,0 -1.70371,-0.340741 -0.770363,-0.34074 -1.348138,-0.977776 -0.562968,-0.651851 -0.8889,-1.585184 -0.32592,-0.948148 -0.32592,-2.133331 z" />
  <path
     inkscape:connector-curvature="0"
     id="path838"
     style="font-style:normal;font-variant:normal;font-weight:normal;font-stretch:normal;font-size:16px;line-height:18px;font-family:'Source Sans Pro';-inkscape-font-specification:'Source Sans Pro';letter-spacing:0px;word-spacing:0px;fill:#4d4d4d;fill-opacity:1;stroke:none;stroke-width:0.92592496px;stroke-linecap:butt;stroke-linejoin:miter;stroke-opacity:1"
     d="m 65.43585,23.400022 q -0.918514,0 -1.68889,-0.355555 -0.755556,-0.355556 -1.31851,-1.007407 -0.548148,-0.666666 -0.85926,-1.599998 -0.296292,-0.948147 -0.296292,-2.118516 0,-1.17037 0.296292,-2.088888 0.311112,-0.933332 0.85926,-1.570368 0.562954,-0.651852 1.31851,-0.992592 0.770376,-0.34074 1.68889,-0.34074 0.903707,0 1.659263,0.355554 0.770363,0.340741 1.31851,0.992593 0.562967,0.637035 0.859259,1.570369 0.311112,0.918518 0.311112,2.074072 0,1.170369 -0.311112,2.118516 -0.296292,0.933332 -0.859259,1.599998 -0.548147,0.651851 -1.31851,1.007407 -0.755556,0.355555 -1.659263,0.355555 z m 0,-1.081481 q 0.651852,0 1.170371,-0.281481 0.533327,-0.28148 0.903707,-0.799999 0.385175,-0.533332 0.592583,-1.259258 0.207408,-0.74074 0.207408,-1.659257 0,-0.903703 -0.207408,-1.629629 -0.207408,-0.725925 -0.592583,-1.229628 -0.37038,-0.503703 -0.903707,-0.770369 -0.518519,-0.281481 -1.170371,-0.281481 -0.65185,0 -1.185178,0.281481 -0.53334,0.266666 -0.918528,0.770369 -0.370368,0.503703 -0.577776,1.229628 -0.207406,0.725926 -0.207406,1.629629 0,0.918517 0.207406,1.659257 0.207408,0.725926 0.577776,1.259258 0.385188,0.518519 0.918528,0.799999 0.533328,0.281481 1.185178,0.281481 z" />
  <path
     inkscape:connector-curvature="0"
     id="path840"
     style="font-style:normal;font-variant:normal;font-weight:normal;font-stretch:normal;font-size:16px;line-height:18px;font-family:'Source Sans Pro';-inkscape-font-specification:'Source Sans Pro';letter-spacing:0px;word-spacing:0px;fill:#4d4d4d;fill-opacity:1;stroke:none;stroke-width:0.92592496px;stroke-linecap:butt;stroke-linejoin:miter;stroke-opacity:1"
     d="m 71.587008,13.503735 h 1.466662 l 1.881478,5.21481 0.6963,1.985184 h 0.05928 l 0.681479,-1.985184 1.86667,-5.21481 h 1.451842 v 9.71851 h -1.17037 v -5.348143 q 0,-0.651851 0.05928,-1.437036 0.05928,-0.785185 0.10368,-1.437035 h -0.05928 l -0.770363,2.162961 -1.86667,5.081475 h -0.711108 l -1.86667,-5.081475 -0.770364,-2.162961 h -0.05928 q 0.0444,0.65185 0.08892,1.437035 0.05928,0.785185 0.05928,1.437036 v 5.348143 h -1.14073 z" />
  <path
     inkscape:connector-curvature="0"
     id="path842"
     style="font-style:normal;font-variant:normal;font-weight:normal;font-stretch:normal;font-size:16px;line-height:18px;font-family:'Source Sans Pro';-inkscape-font-specification:'Source Sans Pro';letter-spacing:0px;word-spacing:0px;fill:#4d4d4d;fill-opacity:1;stroke:none;stroke-width:0.92592496px;stroke-linecap:butt;stroke-linejoin:miter;stroke-opacity:1"
     d="m 82.293013,13.503735 h 2.99258 q 0.800002,0 1.466677,0.148149 0.66666,0.148147 1.125922,0.488889 0.474068,0.325925 0.725925,0.874072 0.266662,0.548148 0.266662,1.348147 0,0.77037 -0.266662,1.333332 -0.251857,0.562962 -0.725925,0.933331 -0.474075,0.370371 -1.140742,0.562964 -0.651855,0.177777 -1.451857,0.177777 h -1.748144 v 3.851849 h -1.244436 z m 2.82962,4.859255 q 1.288897,0 1.8963,-0.474074 0.622222,-0.488888 0.622222,-1.525924 0,-1.051852 -0.637042,-1.45185 -0.622215,-0.414815 -1.88148,-0.414815 h -1.585184 v 3.866663 z" />
  <path
     inkscape:connector-curvature="0"
     id="path844"
     style="font-style:normal;font-variant:normal;font-weight:normal;font-stretch:normal;font-size:16px;line-height:18px;font-family:'Source Sans Pro';-inkscape-font-specification:'Source Sans Pro';letter-spacing:0px;word-spacing:0px;fill:#4d4d4d;fill-opacity:1;stroke:none;stroke-width:0.92592496px;stroke-linecap:butt;stroke-linejoin:miter;stroke-opacity:1"
     d="m 94.180958,19.266693 -0.459255,-1.48148 Q 93.469845,16.970399 93.232816,16.1704 92.995778,15.355585 92.758748,14.511143 h -0.05933 q -0.237052,0.844442 -0.47409,1.659257 -0.23703,0.799999 -0.48888,1.614813 l -0.474074,1.48148 z m 0.311107,0.992592 h -3.540726 l -0.93333,2.96296 h -1.259272 l 3.288899,-9.71851 h 1.392592 l 3.288876,9.71851 h -1.303702 z" />
  <path
     inkscape:connector-curvature="0"
     id="path846"
     style="font-style:normal;font-variant:normal;font-weight:normal;font-stretch:normal;font-size:16px;line-height:18px;font-family:'Source Sans Pro';-inkscape-font-specification:'Source Sans Pro';letter-spacing:0px;word-spacing:0px;fill:#4d4d4d;fill-opacity:1;stroke:none;stroke-width:0.92592496px;stroke-linecap:butt;stroke-linejoin:miter;stroke-opacity:1"
     d="m 98.0048,13.503735 h 1.27407 l 3.52593,6.103698 1.05184,2.014814 h 0.0593 q -0.0444,-0.740741 -0.10368,-1.525925 -0.0593,-0.8 -0.0593,-1.570368 v -5.022219 h 1.17037 v 9.71851 h -1.27407 l -3.5111,-6.118514 -1.05186,-1.999996 H 99.027 q 0.0444,0.740739 0.0889,1.511109 0.0593,0.755555 0.0593,1.525924 v 5.081477 h -1.17037 z" />
  <path
     inkscape:connector-curvature="0"
     id="path848"
     style="font-style:normal;font-variant:normal;font-weight:normal;font-stretch:normal;font-size:16px;line-height:18px;font-family:'Source Sans Pro';-inkscape-font-specification:'Source Sans Pro';letter-spacing:0px;word-spacing:0px;fill:#4d4d4d;fill-opacity:1;stroke:none;stroke-width:0.92592496px;stroke-linecap:butt;stroke-linejoin:miter;stroke-opacity:1"
     d="m 109.10965,19.459285 -2.93332,-5.95555 h 1.33333 l 1.24443,2.740739 q 0.23704,0.533331 0.45927,1.051851 0.23703,0.518517 0.48889,1.066665 h 0.0593 q 0.25185,-0.548148 0.48889,-1.066665 0.25183,-0.51852 0.47407,-1.051851 l 1.25925,-2.740739 h 1.27407 l -2.91851,5.95555 v 3.76296 h -1.22962 z" />
  <path
     d="m 53.25787,28.131393 h 3.75986 v 13.413591 h 6.528965 v 3.150162 H 53.25787 Z"
     id="path822"
     inkscape:connector-curvature="0"
     style="font-style:normal;font-variant:normal;font-weight:bold;font-stretch:normal;font-size:16px;line-height:18px;font-family:'Source Sans Pro';-inkscape-font-specification:'Source Sans Pro Bold';letter-spacing:0px;word-spacing:0px;fill:#4d4d4d;fill-opacity:1;stroke:none;stroke-width:1.58778322px;stroke-linecap:butt;stroke-linejoin:miter;stroke-opacity:1" />
  <path
     d="m 72.196143,45 q -1.676698,0 -3.073942,-0.584304 -1.371838,-0.609708 -2.362629,-1.727508 -0.990767,-1.1178 -1.549666,-2.718285 -0.533495,-1.600485 -0.533495,-3.632848 0,-2.032362 0.533495,-3.607442 0.558899,-1.600486 1.549666,-2.667476 0.990791,-1.092396 2.362629,-1.651294 1.397244,-0.584305 3.073942,-0.584305 1.67671,0 3.048549,0.584305 1.397254,0.558898 2.388021,1.651294 0.990779,1.092394 1.524274,2.69288 0.5589,1.575081 0.5589,3.582038 0,2.032363 -0.5589,3.632848 -0.533495,1.600485 -1.524274,2.718285 -0.990767,1.1178 -2.388021,1.727508 Q 73.872853,45 72.196143,45 Z m 0,-3.226375 q 1.702102,0 2.692893,-1.448058 0.990767,-1.473464 0.990767,-3.988512 0,-2.489644 -0.990767,-3.886892 -0.990791,-1.39725 -2.692893,-1.39725 -1.676698,0 -2.69287,1.39725 -0.990779,1.397248 -0.990779,3.886892 0,1.244823 0.254039,2.261003 0.279444,0.990777 0.73674,1.702104 0.482688,0.711327 1.168606,1.092396 0.68592,0.381067 1.524264,0.381067 z"
     id="path824"
     inkscape:connector-curvature="0"
     style="font-style:normal;font-variant:normal;font-weight:bold;font-stretch:normal;font-size:16px;line-height:18px;font-family:'Source Sans Pro';-inkscape-font-specification:'Source Sans Pro Bold';letter-spacing:0px;word-spacing:0px;fill:#4d4d4d;fill-opacity:1;stroke:none;stroke-width:1.58778322px;stroke-linecap:butt;stroke-linejoin:miter;stroke-opacity:1" />
  <path
     d="m 82.042781,36.514888 q 0,-2.057768 0.635123,-3.658253 0.660517,-1.62589 1.752907,-2.743689 1.1178,-1.117801 2.591257,-1.702103 1.498874,-0.584305 3.175581,-0.584305 1.752907,0 3.023137,0.660518 1.295617,0.660517 2.133981,1.498867 l -2.057774,2.311813 q -0.635107,-0.584305 -1.32105,-0.914564 -0.660502,-0.330259 -1.727482,-0.330259 -0.965384,0 -1.778331,0.381068 -0.787538,0.355663 -1.37184,1.041586 -0.5589,0.685922 -0.889162,1.676698 -0.330263,0.990777 -0.330263,2.235599 0,2.565858 1.143203,3.988512 1.168619,1.397249 3.531238,1.397249 0.508095,0 0.96537,-0.127023 0.482692,-0.127022 0.787537,-0.381068 v -2.845307 h -2.743686 v -3.048543 h 6.07169 v 7.621358 q -0.45729,0.381068 -1.067002,0.762135 -0.584302,0.355665 -1.295632,0.635114 -0.71133,0.27945 -1.52427,0.431878 Q 90.934366,45 90.070622,45 q -1.6767,0 -3.150157,-0.533496 -1.448062,-0.558898 -2.540459,-1.625889 -1.092397,-1.06699 -1.72752,-2.642071 -0.609705,-1.600486 -0.609705,-3.683656 z"
     id="path826"
     inkscape:connector-curvature="0"
     style="font-style:normal;font-variant:normal;font-weight:bold;font-stretch:normal;font-size:16px;line-height:18px;font-family:'Source Sans Pro';-inkscape-font-specification:'Source Sans Pro Bold';letter-spacing:0px;word-spacing:0px;fill:#4d4d4d;fill-opacity:1;stroke:none;stroke-width:1.58778322px;stroke-linecap:butt;stroke-linejoin:miter;stroke-opacity:1" />
  <path
     d="m 105.73807,45 q -1.6767,0 -3.07395,-0.584304 -1.37185,-0.609708 -2.36262,-1.727508 -0.99078,-1.1178 -1.54968,-2.718285 -0.53349,-1.600485 -0.53349,-3.632848 0,-2.032362 0.53349,-3.607442 0.5589,-1.600486 1.54968,-2.667476 0.99077,-1.092396 2.36262,-1.651294 1.39725,-0.584305 3.07395,-0.584305 1.67671,0 3.04855,0.584305 1.39725,0.558898 2.38801,1.651294 0.99078,1.092394 1.52427,2.69288 0.5589,1.575081 0.5589,3.582038 0,2.032363 -0.5589,3.632848 -0.53349,1.600485 -1.52427,2.718285 -0.99076,1.1178 -2.38801,1.727508 Q 107.41478,45 105.73807,45 Z m 0,-3.226375 q 1.7021,0 2.69288,-1.448058 0.99078,-1.473464 0.99078,-3.988512 0,-2.489644 -0.99078,-3.886892 -0.99078,-1.39725 -2.69288,-1.39725 -1.6767,0 -2.69289,1.39725 -0.99078,1.397248 -0.99078,3.886892 0,1.244823 0.25406,2.261003 0.27944,0.990777 0.73672,1.702104 0.48269,0.711327 1.16862,1.092396 0.68592,0.381067 1.52427,0.381067 z"
     id="path830"
     inkscape:connector-curvature="0"
     style="font-style:normal;font-variant:normal;font-weight:bold;font-stretch:normal;font-size:16px;line-height:18px;font-family:'Source Sans Pro';-inkscape-font-specification:'Source Sans Pro Bold';letter-spacing:0px;word-spacing:0px;fill:#4d4d4d;fill-opacity:1;stroke:none;stroke-width:1.58778322px;stroke-linecap:butt;stroke-linejoin:miter;stroke-opacity:1" />
</svg>
