<?xml version="1.0" encoding="UTF-8" standalone="no"?>
<!-- Created with Inkscape (http://www.inkscape.org/) -->

<svg
   xmlns:dc="http://purl.org/dc/elements/1.1/"
   xmlns:cc="http://creativecommons.org/ns#"
   xmlns:rdf="http://www.w3.org/1999/02/22-rdf-syntax-ns#"
   xmlns:svg="http://www.w3.org/2000/svg"
   xmlns="http://www.w3.org/2000/svg"
   xmlns:xlink="http://www.w3.org/1999/xlink"
   xmlns:sodipodi="http://sodipodi.sourceforge.net/DTD/sodipodi-0.dtd"
   xmlns:inkscape="http://www.inkscape.org/namespaces/inkscape"
   width="1000"
   height="600"
   viewBox="0 0 1000 600"
   version="1.1"
   id="svg8"
   inkscape:version="0.92.4 (5da689c313, 2019-01-14)"
   sodipodi:docname="003.inc.svg">
  <defs
     id="defs2">
    <linearGradient
       inkscape:collect="always"
       id="linearGradient864">
      <stop
         style="stop-color:#ffd42a;stop-opacity:1;"
         offset="0"
         id="stop860" />
      <stop
         style="stop-color:#d4aa00;stop-opacity:1"
         offset="1"
         id="stop862" />
    </linearGradient>
    <linearGradient
       inkscape:collect="always"
       xlink:href="#linearGradient864"
       id="linearGradient866"
       x1="515"
       y1="500"
       x2="565.9234"
       y2="529.40063"
       gradientUnits="userSpaceOnUse"
       gradientTransform="rotate(-30,559.81345,-908.15802)" />
  </defs>
  <sodipodi:namedview
     id="base"
     pagecolor="#ffffff"
     bordercolor="#666666"
     borderopacity="1.0"
     inkscape:pageopacity="0.0"
     inkscape:pageshadow="2"
     inkscape:zoom="1"
     inkscape:cx="500"
     inkscape:cy="300"
     inkscape:document-units="px"
     inkscape:current-layer="svg8"
     showgrid="false"
     units="px"
     inkscape:window-width="3747"
     inkscape:window-height="2125"
     inkscape:window-x="81"
     inkscape:window-y="0"
     inkscape:window-maximized="1" />
  <metadata
     id="metadata5">
    <rdf:RDF>
      <cc:Work
         rdf:about="">
        <dc:format>image/svg+xml</dc:format>
        <dc:type
           rdf:resource="http://purl.org/dc/dcmitype/StillImage" />
        <dc:title />
      </cc:Work>
    </rdf:RDF>
  </metadata>
  <image
     sodipodi:absref="/home/thomas/Desktop/html-slides/template/slides/coffee.jpg"
     xlink:href="coffee.jpg"
     width="1000"
     height="666.5"
     preserveAspectRatio="none"
     id="image1027"
     x="0"
     y="-33.25" />
  <rect
     style="fill:#e6e6e6"
     id="horizontalRuler"
     width="1000"
     height="40"
     x="0"
     y="-60" />
  <rect
     y="0"
     x="-60"
     height="600"
     width="40"
     id="verticalRuler"
     style="fill:#e6e6e6" />
  <rect
     y="-320"
     x="480"
     height="100"
     width="100"
     id="blackColor"
     style="fill:#000000" />
  <rect
     y="-200"
     x="480"
     height="100"
     width="100"
     id="grayColor"
     style="fill:#999999" />
  <rect
     y="-320"
     x="240"
     height="100"
     width="100"
     id="blueColor"
     style="fill:#4c99e6" />
  <rect
     style="fill:#99e64c"
     id="greenColor"
     width="100"
     height="100"
     x="120"
     y="-200" />
  <rect
     y="-200"
     x="240"
     height="100"
     width="100"
     id="violetColor"
     style="fill:#994ce6" />
  <rect
     style="fill:#e6994c"
     id="orangeColor"
     width="100"
     height="100"
     x="120"
     y="-320" />
  <rect
     style="fill:#1760a9"
     id="darkBlueColor"
     width="100"
     height="100"
     x="360"
     y="-320" />
  <rect
     style="fill:#6018a8"
     id="darkVioletColor"
     width="100"
     height="100"
     x="360"
     y="-200" />
  <rect
     y="-200"
     x="0"
     height="100"
     width="100"
     id="darkGreenColor"
     style="fill:#60a818" />
  <rect
     y="-320"
     x="0"
     height="100"
     width="100"
     id="darkOrangeColor"
     style="fill:#a86018" />
  <path
     style="fill:url(#linearGradient866);fill-opacity:1;stroke-width:0.1701505"
     d="m 1262.0523,385.24476 c -19.8999,1e-5 -41.5179,-11.46247 -49.7789,-28.94253 -7.7852,-0.65396 -14.8219,-6.45071 -17.3436,-14.00797 -4.329,-12.97375 -4.2438,-27.72884 -14.6012,-37.9673 -4.6576,-4.60409 7.8344,-5.13968 10.8104,-4.34223 5.6681,1.51875 8.3825,7.97966 12.7006,13.68989 5.832,7.7122 8.2023,10.76853 12.8354,2.7438 3.7802,-6.54742 6.4354,-7.90818 10.4776,-11.23817 5.4756,-4.51082 0.3953,-3.29645 2.9607,-7.73985 2.0106,-3.48243 12.4196,-6.20715 19.9745,-6.20715 6.7125,0 5.2013,-1.97146 5.2013,-5.90532 0,-8.91028 15.6442,-9.00098 15.6441,-10e-6 0,4.42761 -2.4943,5.99946 4.5994,5.90532 7.1014,-0.0942 17.7988,2.28687 20.3569,6.71762 2.1606,3.74234 -2.0725,5.11054 4.1077,8.67873 6.1803,3.56819 6.3003,7.61704 9.9057,1.41071 4.7493,-8.17539 17.2499,-10.66339 25.0574,-4.4854 12.4199,9.82772 13.1712,29.43205 4.1154,41.9006 -6.9503,9.5696 -18.5223,14.58543 -29.0111,18.04439 -13.3008,14.82182 -26.8068,21.74488 -48.0123,21.74487 z m 58.997,-33.6521 c 14.0708,-4.31329 21.4995,-22.28303 15.367,-35.92912 -2.9587,-6.58355 -11.2477,-11.92286 -17.4715,-7.11023 -3.3331,2.57728 -8.581,8.1844 -6.4349,12.45195 4.5805,9.10864 5.68,19.44116 3.7573,29.33375 -0.429,2.20722 3.6172,1.61075 4.7821,1.25365 z"
     id="path858"
     inkscape:connector-curvature="0"
     sodipodi:nodetypes="scsssssssssssszssscsssssss" />
  <rect
     style="color:#000000;clip-rule:nonzero;display:inline;overflow:visible;visibility:visible;opacity:0.8;isolation:auto;mix-blend-mode:normal;color-interpolation:sRGB;color-interpolation-filters:linearRGB;solid-color:#000000;solid-opacity:1;vector-effect:none;fill:#ffffff;fill-opacity:1;fill-rule:nonzero;stroke:none;stroke-width:2;stroke-linecap:butt;stroke-linejoin:miter;stroke-miterlimit:4;stroke-dasharray:none;stroke-dashoffset:0;stroke-opacity:1;marker:none;color-rendering:auto;image-rendering:auto;shape-rendering:auto;text-rendering:auto;enable-background:accumulate"
     id="rect1030"
     width="600"
     height="80"
     x="200"
     y="440"
     rx="40" />
  <text
     id="text1028"
     y="490"
     x="500"
     style="font-weight:bold;font-size:30px;line-height:40px;font-family:Lato;-inkscape-font-specification:'Lato Bold';text-align:center;text-anchor:middle;fill:#000000"
     xml:space="preserve"><tspan
       y="490"
       x="500"
       sodipodi:role="line"
       id="tspan832">They can display text and images.</tspan></text>
</svg>
