<?xml version="1.0" encoding="UTF-8" standalone="no"?>
<!-- Created with Inkscape (http://www.inkscape.org/) -->

<svg
   xmlns:dc="http://purl.org/dc/elements/1.1/"
   xmlns:cc="http://creativecommons.org/ns#"
   xmlns:rdf="http://www.w3.org/1999/02/22-rdf-syntax-ns#"
   xmlns:svg="http://www.w3.org/2000/svg"
   xmlns="http://www.w3.org/2000/svg"
   xmlns:sodipodi="http://sodipodi.sourceforge.net/DTD/sodipodi-0.dtd"
   xmlns:inkscape="http://www.inkscape.org/namespaces/inkscape"
   width="1000"
   height="600"
   viewBox="0 0 1000 600"
   version="1.1"
   id="svg8"
   inkscape:version="0.92.4 (5da689c313, 2019-01-14)"
   sodipodi:docname="vectors.inc.svg">
  <defs
     id="defs2" />
  <sodipodi:namedview
     id="base"
     pagecolor="#ffffff"
     bordercolor="#666666"
     borderopacity="1.0"
     inkscape:pageopacity="0.0"
     inkscape:pageshadow="2"
     inkscape:zoom="1"
     inkscape:cx="-354.36654"
     inkscape:cy="86"
     inkscape:document-units="px"
     inkscape:current-layer="svg8"
     showgrid="false"
     units="px"
     inkscape:window-width="3747"
     inkscape:window-height="2125"
     inkscape:window-x="81"
     inkscape:window-y="0"
     inkscape:window-maximized="1" />
  <metadata
     id="metadata5">
    <rdf:RDF>
      <cc:Work
         rdf:about="">
        <dc:format>image/svg+xml</dc:format>
        <dc:type
           rdf:resource="http://purl.org/dc/dcmitype/StillImage" />
        <dc:title />
      </cc:Work>
    </rdf:RDF>
  </metadata>
  <path
     sodipodi:nodetypes="scsssssssssssszssscsssssss"
     inkscape:connector-curvature="0"
     id="path919"
     d="m 604.06914,470.18381 c -47.95951,7e-5 -100.05977,-27.625 -119.96906,-69.7526 -18.76262,-1.57608 -35.72136,-15.54646 -41.79873,-33.75972 -10.4331,-31.26724 -10.22769,-66.82757 -35.18939,-91.50269 -11.2251,-11.09598 18.88116,-12.38679 26.05345,-10.46484 13.66033,3.66019 20.20215,19.23125 30.60888,32.99307 14.05542,18.58664 19.76786,25.95257 30.93384,6.6127 9.11045,-15.77955 15.50953,-19.05901 25.25133,-27.0844 13.19645,-10.87131 0.95275,-7.94462 7.13549,-18.65337 4.84562,-8.3928 29.93168,-14.95942 48.1393,-14.95942 16.1774,0 12.5353,-4.75137 12.5353,-14.23205 0,-21.47419 37.70314,-21.69274 37.70291,-7e-5 0,10.67071 -6.01139,14.45892 11.08473,14.23204 17.1146,-0.22731 42.89572,5.51146 49.06093,16.18971 5.20705,9.01923 -4.99486,12.31659 9.89967,20.91607 14.89475,8.59949 15.18401,18.35733 23.8731,3.39991 11.44598,-19.703 41.57297,-25.6992 60.38935,-10.81002 29.93236,23.68517 31.74307,70.93237 9.91824,100.98206 -16.75048,23.06316 -44.63945,35.15144 -69.91786,43.48766 -32.05544,35.72119 -64.60542,52.40603 -115.71148,52.40596 z m 142.18501,-81.10284 c 33.91116,-10.39516 51.8146,-53.70291 37.03503,-86.59058 -7.13056,-15.86653 -27.10733,-28.73455 -42.10695,-17.13587 -8.03289,6.21131 -20.68053,19.72471 -15.5083,30.00963 11.03913,21.95217 13.68896,46.85397 9.05517,70.69547 -1.0339,5.31948 8.71765,3.88196 11.52505,3.02135 z"
     style="fill:#abc837;fill-opacity:1;stroke-width:0.41006926" />
  <text
     id="text1028"
     y="90"
     x="500"
     style="font-weight:bold;font-size:30px;line-height:40px;font-family:Lato;-inkscape-font-specification:'Lato Bold';text-align:center;text-anchor:middle;fill:#000000"
     xml:space="preserve"><tspan
       y="90"
       x="500"
       sodipodi:role="line"
       id="tspan832">Vector graphics and diagrams.</tspan></text>
  <rect
     style="fill:#5aa02c"
     id="rect831"
     width="80"
     height="316"
     x="220"
     y="214" />
  <rect
     y="311"
     x="340"
     height="219"
     width="80"
     id="rect833"
     style="fill:#4f8d27" />
  <rect
     style="fill:#4b8524"
     id="rect835"
     width="80"
     height="194"
     x="460"
     y="336" />
  <rect
     y="392"
     x="580"
     height="138"
     width="80"
     id="rect837"
     style="fill:#3d6c1e" />
  <rect
     style="fill:#38631b"
     id="rect839"
     width="80"
     height="122"
     x="700"
     y="408" />
  <text
     xml:space="preserve"
     style="font-weight:bold;font-size:20px;line-height:40px;font-family:Lato;-inkscape-font-specification:'Lato Bold';text-align:start;text-anchor:start;fill:#ffffff"
     x="-518"
     y="285"
     id="text855"
     transform="rotate(-90)"
     inkscape:transform-center-x="1"
     inkscape:transform-center-y="28"><tspan
       sodipodi:role="line"
       x="-518"
       y="285"
       id="tspan857">Turkey</tspan></text>
  <text
     id="text863"
     y="204"
     x="260"
     style="font-weight:bold;font-size:20px;line-height:40px;font-family:Lato;-inkscape-font-specification:'Lato Bold';text-align:center;text-anchor:middle;fill:#000000"
     xml:space="preserve"><tspan
       id="tspan861"
       y="204"
       x="260"
       sodipodi:role="line">3.16 kg</tspan></text>
  <text
     inkscape:transform-center-y="28"
     inkscape:transform-center-x="1"
     transform="rotate(-90)"
     id="text871"
     y="405"
     x="-518"
     style="font-weight:bold;font-size:20px;line-height:40px;font-family:Lato;-inkscape-font-specification:'Lato Bold';text-align:start;text-anchor:start;fill:#ffffff"
     xml:space="preserve"><tspan
       id="tspan869"
       y="405"
       x="-518"
       sodipodi:role="line">United Kingdom</tspan></text>
  <text
     xml:space="preserve"
     style="font-weight:bold;font-size:20px;line-height:40px;font-family:Lato;-inkscape-font-specification:'Lato Bold';text-align:start;text-anchor:start;fill:#ffffff"
     x="-518"
     y="525"
     id="text875"
     transform="rotate(-90)"
     inkscape:transform-center-x="1"
     inkscape:transform-center-y="28"><tspan
       sodipodi:role="line"
       x="-518"
       y="525"
       id="tspan873">Ireland</tspan></text>
  <text
     inkscape:transform-center-y="28"
     inkscape:transform-center-x="1"
     transform="rotate(-90)"
     id="text879"
     y="645"
     x="-518"
     style="font-weight:bold;font-size:20px;line-height:40px;font-family:Lato;-inkscape-font-specification:'Lato Bold';text-align:start;text-anchor:start;fill:#ffffff"
     xml:space="preserve"><tspan
       id="tspan877"
       y="645"
       x="-518"
       sodipodi:role="line">Russia</tspan></text>
  <text
     xml:space="preserve"
     style="font-weight:bold;font-size:20px;line-height:40px;font-family:Lato;-inkscape-font-specification:'Lato Bold';text-align:start;text-anchor:start;fill:#ffffff"
     x="-518"
     y="765"
     id="text883"
     transform="rotate(-90)"><tspan
       sodipodi:role="line"
       x="-518"
       y="765"
       id="tspan881">Marocco</tspan></text>
  <text
     xml:space="preserve"
     style="font-weight:bold;font-size:20px;line-height:30px;font-family:Lato;-inkscape-font-specification:'Lato Bold';text-align:end;text-anchor:end;fill:#627320;fill-opacity:1"
     x="780"
     y="194"
     id="text895"><tspan
       sodipodi:role="line"
       x="780"
       y="194"
       id="tspan897">Annual per capita tea consumption</tspan><tspan
       sodipodi:role="line"
       x="780"
       y="224"
       id="tspan899"
       style="font-weight:normal;fill:#627320;fill-opacity:1">as of 2016</tspan></text>
  <text
     xml:space="preserve"
     style="font-weight:bold;font-size:20px;line-height:40px;font-family:Lato;-inkscape-font-specification:'Lato Bold';text-align:center;text-anchor:middle;fill:#000000"
     x="380"
     y="301"
     id="text905"><tspan
       sodipodi:role="line"
       x="380"
       y="301"
       id="tspan903">2.19 kg</tspan></text>
  <text
     id="text909"
     y="326"
     x="500"
     style="font-weight:bold;font-size:20px;line-height:40px;font-family:Lato;-inkscape-font-specification:'Lato Bold';text-align:center;text-anchor:middle;fill:#000000"
     xml:space="preserve"><tspan
       id="tspan907"
       y="326"
       x="500"
       sodipodi:role="line">1.94 kg</tspan></text>
  <text
     xml:space="preserve"
     style="font-weight:bold;font-size:20px;line-height:40px;font-family:Lato;-inkscape-font-specification:'Lato Bold';text-align:center;text-anchor:middle;fill:#000000"
     x="620"
     y="382"
     id="text913"><tspan
       sodipodi:role="line"
       x="620"
       y="382"
       id="tspan911">1.38 kg</tspan></text>
  <text
     id="text917"
     y="398"
     x="740"
     style="font-weight:bold;font-size:20px;line-height:40px;font-family:Lato;-inkscape-font-specification:'Lato Bold';text-align:center;text-anchor:middle;fill:#000000"
     xml:space="preserve"><tspan
       id="tspan915"
       y="398"
       x="740"
       sodipodi:role="line">1.22 kg</tspan></text>
  <rect
     style="fill:#000000"
     id="rect842"
     width="640"
     height="10"
     x="180"
     y="530" />
</svg>
