<?xml version="1.0" encoding="UTF-8" standalone="no"?>
<!-- Created with Inkscape (http://www.inkscape.org/) -->

<svg
   xmlns:dc="http://purl.org/dc/elements/1.1/"
   xmlns:cc="http://creativecommons.org/ns#"
   xmlns:rdf="http://www.w3.org/1999/02/22-rdf-syntax-ns#"
   xmlns:svg="http://www.w3.org/2000/svg"
   xmlns="http://www.w3.org/2000/svg"
   xmlns:sodipodi="http://sodipodi.sourceforge.net/DTD/sodipodi-0.dtd"
   xmlns:inkscape="http://www.inkscape.org/namespaces/inkscape"
   width="192"
   height="192"
   version="1.1"
   id="svg8"
   inkscape:version="0.92.4 (5da689c313, 2019-01-14)"
   sodipodi:docname="launcher-icon.svg">
  <defs
     id="defs2" />
  <sodipodi:namedview
     id="base"
     pagecolor="#ffffff"
     bordercolor="#666666"
     borderopacity="1.0"
     inkscape:pageopacity="0.0"
     inkscape:pageshadow="2"
     inkscape:zoom="1"
     inkscape:cx="-125.5"
     inkscape:cy="92.5"
     inkscape:document-units="px"
     inkscape:current-layer="svg8"
     showgrid="false"
     units="px"
     inkscape:window-width="3747"
     inkscape:window-height="2125"
     inkscape:window-x="81"
     inkscape:window-y="0"
     inkscape:window-maximized="1" />
  <metadata
     id="metadata5">
    <rdf:RDF>
      <cc:Work
         rdf:about="">
        <dc:format>image/svg+xml</dc:format>
        <dc:type
           rdf:resource="http://purl.org/dc/dcmitype/StillImage" />
        <dc:title />
      </cc:Work>
    </rdf:RDF>
  </metadata>
  <rect
     style="fill:#3771c8"
     id="rect824"
     width="192"
     height="192"
     x="0"
     y="0"
     inkscape:export-xdpi="96"
     inkscape:export-ydpi="96"
     inkscape:export-filename="launcher-icon-192.png" />
  <rect
     style="fill:#ffffff"
     id="rect831"
     width="120"
     height="70"
     x="36"
     y="61" />
  <path
     sodipodi:type="inkscape:offset"
     inkscape:radius="3"
     inkscape:original="M 80 81 L 80 111 L 112 96 L 80 81 z "
     style="fill:#3771c8"
     id="rect819"
     d="M 80.115234,78.001953 A 3.0003,3.0003 0 0 0 77,81 v 30 a 3.0003,3.0003 0 0 0 4.273438,2.7168 L 113.27344,98.716797 a 3.0003,3.0003 0 0 0 0,-5.433594 l -32.000002,-15 a 3.0003,3.0003 0 0 0 -1.158204,-0.28125 z" />
  <path
     style="fill:#ffffff"
     d="M 36 21 L 36 51 L 156 51 L 156 21 L 152 21 L 152 47 L 40 47 L 40 21 L 36 21 z "
     id="rect833" />
  <path
     id="path839"
     d="m 36,171 v -30 h 120 v 30 h -4 V 145 H 40 v 26 z"
     style="fill:#ffffff"
     inkscape:connector-curvature="0" />
</svg>
